<?xml version="1.0" encoding="UTF-8" standalone="no"?>
<!DOCTYPE svg PUBLIC "-//W3C//DTD SVG 1.1//EN" "http://www.w3.org/Graphics/SVG/1.1/DTD/svg11.dtd">
<svg width="100%" height="100%" viewBox="0 0 410 100" version="1.1" xmlns="http://www.w3.org/2000/svg" xmlns:xlink="http://www.w3.org/1999/xlink" xml:space="preserve" xmlns:serif="http://www.serif.com/" style="fill-rule:evenodd;clip-rule:evenodd;stroke-linejoin:round;stroke-miterlimit:2;">
    <g transform="matrix(1,0,0,1,0,-0.000405612)">
        <path d="M404.98,69.25C403.711,68.33 402.705,68.2 401.874,69.95C387.615,100.785 363.602,85.39 366.008,86.745C371.344,84.295 385.341,73.098 383.241,57.571C381.973,48.08 373.837,43.881 365.177,45.411C350.087,48.036 344.576,64.307 347.375,78.697C347.856,81.19 348.731,83.202 349.65,85.214C332.635,99.079 325.856,72.836 325.068,69.687C325.025,69.512 338.234,58.533 341.908,32.334C345.757,4.909 337.009,-0.121 328.043,0.054C311.466,0.36 307.004,34.958 312.996,63.782C312.515,63.913 310.153,65.225 306.392,65.357C303.68,56.827 292.089,49.348 289.071,52.235C281.504,59.452 290.908,73.535 297.557,74.629C293.576,99.167 268.645,93.087 273.281,62.339C281.373,47.292 287.584,24.854 286.447,11.339C286.053,6.57 282.51,0.142 274.506,0.448C259.11,1.06 257.448,35.658 259.241,60.239C259.154,59.627 258.279,63.213 251.98,65.007C250.493,56.74 237.153,48.386 234.004,52.41C228.143,59.89 238.334,73.23 243.145,74.148C239.165,98.686 214.234,92.606 218.87,61.858C227.006,46.811 233.173,24.417 232.079,10.902C231.686,6.134 228.143,-0.296 220.138,0.011C204.742,0.623 203.08,35.221 204.874,59.801C204.786,59.189 203.911,62.907 197.35,64.657C197.132,53.897 183.748,48.998 180.511,52.41C174.781,58.533 181.823,71.086 188.34,74.148C184.36,98.686 159.429,92.606 164.065,61.858C172.157,46.811 178.368,24.373 177.231,10.858C176.881,6.134 173.338,-0.296 165.333,0.011C149.937,0.623 148.713,36.97 150.506,61.551C145.432,83.29 128.418,110.408 130.648,56.041C130.867,52.235 131.086,50.791 129.205,49.348C127.762,48.255 124.525,48.779 122.775,48.823C120.632,48.911 120.064,50.179 119.626,52.06C118.533,56.959 118.314,61.726 118.139,68.243C118.052,71.305 117.789,72.705 116.608,76.86C115.427,81.015 108.779,88.582 105.105,87.314C100.031,85.564 101.693,71.261 102.655,61.42C103.443,53.635 100.906,50.18 94.433,48.91C90.627,48.124 88.309,48.255 84.373,46.986C80.611,45.806 79.78,38.72 71.82,41.082C67.446,42.394 70.245,51.622 69.195,58.49C64.034,92.212 53.318,93.13 48.332,76.772C70.726,21.836 54.762,0.185 45.445,0.185C35.735,0.185 24.625,6.878 29.305,49.742C27.031,49.086 26.331,48.736 23.794,48.736C9.666,48.692 0,60.152 0,74.279C0,88.407 9.666,99.867 23.838,99.867C32.192,99.867 38.053,96.061 42.514,90.2C45.401,94.356 48.944,99.954 55.417,99.692C74.662,98.948 80.261,59.452 80.917,57.222C82.973,57.527 84.941,58.14 86.822,58.446C89.972,58.927 90.234,60.196 90.146,63.345C89.316,90.2 94.258,99.605 105.499,99.605C111.753,99.605 117.352,93.437 121.201,89.063C124.088,95.012 128.636,99.429 134.804,99.604C149.675,99.954 155.405,76.248 154.88,79.354C154.486,81.802 159.691,99.429 175.044,99.517C194.026,99.604 197.569,78.741 197.963,75.242C198.05,74.629 198.007,74.542 197.963,75.242L197.963,75.46C203.999,74.323 207.104,71.13 207.104,71.13C207.104,71.13 211.959,99.867 229.849,99.56C248.438,99.21 251.98,80.36 252.418,76.685C252.505,75.898 252.462,75.81 252.418,76.685L252.418,76.772C259.591,74.148 261.472,71.568 261.472,71.568C261.472,71.568 265.321,99.736 284.216,99.998C301.056,100.217 307.31,82.94 307.354,75.723C310.197,75.766 315.446,74.017 315.315,73.93C315.315,73.93 321.482,98.555 338.715,99.823C346.807,100.435 352.886,95.274 356.342,92.913C364.477,99.517 391.552,107.915 408.654,78.916C411.103,74.804 405.898,69.862 404.98,69.249L404.98,69.25ZM23.138,90.287C14.871,90.287 9.578,82.633 9.578,74.41C9.578,66.187 14.434,58.532 22.701,58.532C26.418,58.532 28.474,58.926 31.405,61.462C31.929,63.519 33.417,68.286 34.16,70.473C35.122,73.36 36.303,75.853 37.44,78.521C35.735,85.431 30.311,90.287 23.138,90.287ZM43.258,61.682C42.908,61.113 42.995,61.462 42.602,60.938C41.115,56.827 38.184,47.641 37.834,37.188C37.441,25.378 39.409,11.513 45.226,11.513C49.163,11.513 53.362,39.593 43.258,61.682ZM159.647,49.391C158.729,42.393 158.685,11.119 166.165,11.994C170.32,13.656 163.54,43.136 159.647,49.391ZM214.452,49.391C213.534,42.393 213.49,11.119 220.97,11.994C225.125,13.656 218.345,43.136 214.452,49.391ZM268.82,49.828C267.901,42.83 267.858,11.557 275.337,12.431C279.492,14.05 272.713,43.574 268.82,49.828ZM328.83,10.113C335.697,9.413 335.391,39.375 321.657,58.27C319.863,51.447 317.152,12.475 328.83,10.113ZM357.698,74.628C355.511,63.475 361.197,56.17 367.058,55.383C369.114,55.077 372.088,56.389 372.656,58.883C373.619,63.563 372.525,70.517 359.36,79.308C359.404,79.352 358.179,77.078 357.698,74.628ZM125.05,40.25C129.73,40.25 133.535,36.445 133.535,31.765C133.535,27.085 129.73,23.28 125.05,23.28C120.37,23.28 116.564,27.085 116.564,31.765C116.564,36.445 120.37,40.25 125.05,40.25Z" style="fill:rgb(221,62,123);fill-rule:nonzero;"/>
    </g>
</svg>
